<svg xmlns="http://www.w3.org/2000/svg" enable-background="new 0 0 24 24" viewBox="0 0 24 24" id="community">
  <path id="Layer_2" d="M5.3418,20.9517C5.4414,20.9834,5.5454,21,5.6499,21h8.7002c0.1045,0,0.2085-0.0166,0.3081-0.0483
		c1.3604-0.4404,2.3804-1.5801,2.6602-2.9668c0.0721-0.3438,0.1203-0.6964,0.1469-1.0547h1.2946
		c0.1064,0,0.2119-0.0171,0.3125-0.0503c1.165-0.3833,2.0381-1.3569,2.2778-2.5405c0.396-1.9453-0.0728-3.9707-1.2822-5.5522
		L19.79,8.4199c-0.4156-0.5543-1.0049-0.9561-1.6603-1.1678c0.3367-0.53,0.5387-1.1541,0.5387-1.8273
		C18.6685,3.5361,17.1323,2,15.2437,2c-1.2681,0-2.3646,0.7004-2.9565,1.7272C11.6378,3.272,10.8514,3,10,3C7.7944,3,6,4.7944,6,7
		c0,0.897,0.3075,1.7172,0.8081,2.3851C6.8047,9.386,6.8012,9.3864,6.7979,9.3872c-0.8877,0.2119-1.6812,0.73-2.2271,1.4487
		l-0.3574,0.4595c-1.1147,1.4678-1.7036,3.2085-1.7036,5.0347c0,0.5518,0.0576,1.1084,0.1704,1.6475
		C2.9614,19.3716,3.9814,20.5112,5.3418,20.9517z M18.4756,9.9976c0.8618,1.127,1.1953,2.564,0.9146,3.9434c0,0,0,0.0005,0,0.001
		c-0.0884,0.4365-0.3945,0.8047-0.812,0.9883h-1.2061c-0.0093-0.0547-0.0274-0.1072-0.0378-0.1616
		c-0.0238-0.1243-0.0567-0.2455-0.0862-0.3683c-0.0599-0.2499-0.1293-0.4962-0.2122-0.7391
		c-0.0435-0.1273-0.0888-0.2531-0.1385-0.3782c-0.097-0.2445-0.2082-0.4827-0.3286-0.7179
		c-0.0541-0.1058-0.103-0.2133-0.1619-0.3171c-0.1879-0.3314-0.3931-0.6548-0.6277-0.9623l-0.3428-0.4404
		c-0.5532-0.728-1.3467-1.2461-2.2217-1.4546c-0.002-0.001-0.0044-0.0015-0.0068-0.002c0.0087-0.0117,0.0156-0.0246,0.0242-0.0364
		c0.024-0.033,0.0441-0.0674,0.067-0.1011c0.0502-0.0735,0.1026-0.1454,0.1476-0.2224c1.2813-0.2651,2.7202-0.2344,3.9595,0.0835
		c0.3174,0.0762,0.5957,0.2568,0.7861,0.5107L18.4756,9.9976z M15.2437,4c0.7856,0,1.4248,0.6392,1.4248,1.4248
		s-0.6392,1.4248-1.4248,1.4248s-1.4248-0.6392-1.4248-1.4248S14.458,4,15.2437,4z M10,5c1.103,0,2,0.897,2,2
		c0,0.2813-0.0503,0.5308-0.165,0.7891c-0.2104,0.5107-0.6479,0.9175-1.1777,1.0981c-0.0249,0.0063-0.0493,0.0132-0.0737,0.021
		C10.394,8.9692,10.1978,9,10,9C8.897,9,8,8.103,8,7S8.897,5,10,5z M5.7988,12.5142l0.3574-0.459
		c0.2739-0.3613,0.667-0.6177,1.1143-0.7246C8.1577,11.1113,9.0762,11,10,11c0.2573,0,0.5049,0.0098,0.7319,0.0176
		c0.6914,0.0474,1.3618,0.1523,2.0054,0.3149c0.4395,0.105,0.8325,0.3613,1.1138,0.7319l0.3438,0.4419
		c0.7719,1.0121,1.2166,2.2151,1.2866,3.4788c0.0261,0.5483-0.0143,1.0831-0.122,1.5969c-0.1289,0.6401-0.5771,1.1724-1.1836,1.418
		H5.8242c-0.6064-0.2456-1.0547-0.7783-1.1851-1.4243c-0.0859-0.4116-0.1294-0.8306-0.1294-1.2456
		C4.5098,14.9443,4.958,13.6216,5.7988,12.5142z"></path>
</svg>
